<?xml version="1.0" encoding="UTF-8" standalone="no" ?>
<!DOCTYPE svg PUBLIC "-//W3C//DTD SVG 1.1//EN" "http://www.w3.org/Graphics/SVG/1.1/DTD/svg11.dtd">
<svg xmlns="http://www.w3.org/2000/svg" xmlns:xlink="http://www.w3.org/1999/xlink" version="1.1" width="1080" height="1080" viewBox="0 0 1080 1080" xml:space="preserve">
<desc>Created with Fabric.js 4.2.0</desc>
<defs>
</defs>
<g transform="matrix(1 0 0 1 540 540)" id="bcf454a8-7127-4168-8476-035797be21a3"  >
<rect style="stroke: none; stroke-width: 1; stroke-dasharray: none; stroke-linecap: butt; stroke-dashoffset: 0; stroke-linejoin: miter; stroke-miterlimit: 4; fill: rgb(255,255,255); fill-rule: nonzero; opacity: 1;" vector-effect="non-scaling-stroke"  x="-540" y="-540" rx="0" ry="0" width="1080" height="1080" />
</g>
<g transform="matrix(1 0 0 1 540 540)" id="26d0eb62-958d-4566-967e-6641ad86f70c"  >
</g>
<g transform="matrix(1 0 0 1 617.67 548.64)"  >
<path style="stroke: rgb(0,0,0); stroke-width: 30; stroke-dasharray: none; stroke-linecap: round; stroke-dashoffset: 0; stroke-linejoin: round; stroke-miterlimit: 10; fill: none; fill-rule: nonzero; opacity: 1;" vector-effect="non-scaling-stroke"  transform=" translate(-617.67, -548.64)" d="M 571.5996389093589 186.02589746289084 Q 571.5696389093589 186.02589746289084 570.3568796715444 186.02589746289084 Q 569.1441204337299 186.02589746289084 565.5058427202864 186.02589746289084 Q 561.8675650068428 186.02589746289084 558.2292872933994 186.02589746289084 Q 554.5910095799559 186.02589746289084 548.5272133908834 187.23865670070535 Q 542.4634172018108 188.45141593851986 535.1868617749237 189.66417517633437 Q 527.9103063480367 190.87693441414888 519.4209916833352 193.3024528897779 Q 510.9316770186336 195.72797136540692 504.86788082956105 196.94073060322143 Q 498.8040846404885 198.1534898410359 492.74028845141595 199.36624907885042 Q 486.67649226234346 200.57900831666493 480.6126960732709 203.00452679229394 Q 474.54889988419836 205.43004526792296 468.4851036951259 206.64280450573747 Q 462.4213075060533 207.85556374355198 457.5702705547953 211.49384145699548 Q 452.71923360353725 215.132119170439 446.6554374144647 217.55763764606803 Q 440.5916412253922 219.98315612169705 434.52784503631966 222.40867459732607 Q 428.4640488472471 224.83419307295506 422.4002526581746 227.25971154858408 Q 416.3364564691021 229.6852300242131 409.059901042215 233.3235077376566 Q 401.78334561532796 236.96178545110013 398.14506790188443 239.38730392672915 Q 394.5067901884409 241.81282240235817 390.8685124749974 244.23834087798718 Q 387.2302347615539 246.6638593536162 384.8047162859249 247.8766185914307 Q 382.37919781029586 249.0893778292452 377.5281608590378 252.7276555426887 Q 372.6771239077798 256.3659332561322 371.4643646699653 257.57869249394673 Q 370.25160543215077 258.79145173176124 366.6133277187073 261.21697020739026 Q 362.97505000526377 263.6424886830193 358.12401305400573 267.2807663964628 Q 353.2729761027477 270.91904410990634 350.8474576271187 273.34456258553536 Q 348.42193915148965 275.7700810611644 344.7836614380461 279.4083587746079 Q 341.1453837246026 283.0466364880514 338.71986524897363 286.6849142014949 Q 336.2943467733446 290.32319191493843 332.6560690599011 292.74871039056745 Q 329.01779134645756 295.1742288661965 326.59227287082854 298.81250657964 Q 324.1667543951995 302.45078429308353 321.7412359195705 306.089062006527 Q 319.3157174439415 309.72733971997053 318.10295820612697 310.94009895778504 Q 316.89019896831246 312.15285819559955 313.251921254869 317.0038951468576 Q 309.61364354142546 321.8549320981156 308.40088430361095 324.28045057374464 Q 307.18812506579644 326.70596904937366 307.18812506579644 329.1314875250027 Q 307.18812506579644 331.5570060006317 305.97536582798193 335.19528371407523 Q 304.7626065901674 338.8335614275187 304.7626065901674 342.47183914096223 Q 304.7626065901674 346.11011685440576 302.3370881145384 350.9611538056638 Q 299.9115696389094 355.81219075692184 299.9115696389094 358.23770923255086 Q 299.9115696389094 360.6632277081798 298.6988104010949 365.51426465943786 Q 297.48605116328037 370.3653016106959 296.27329192546586 376.42909779976844 Q 295.06053268765135 382.492893988841 295.06053268765135 387.34393094009897 Q 295.06053268765135 392.194967891357 295.06053268765135 394.62048636698603 Q 295.06053268765135 397.04600484261505 295.06053268765135 399.47152331824407 Q 295.06053268765135 401.8970417938731 295.06053268765135 404.3225602695021 Q 295.06053268765135 406.7480787451311 295.06053268765135 409.17359722076014 Q 295.06053268765135 411.5991156963891 295.06053268765135 412.8118749342036 Q 295.06053268765135 414.0246341720181 295.06053268765135 416.45015264764714 Q 295.06053268765135 418.87567112327616 295.06053268765135 421.3011895989052 Q 295.06053268765135 423.7267080745342 295.06053268765135 426.1522265501632 Q 295.06053268765135 428.57774502579224 295.06053268765135 429.79050426360675 Q 295.06053268765135 431.00326350142126 295.06053268765135 434.6415412148648 Q 295.06053268765135 438.27981892830826 295.06053268765135 439.49257816612277 Q 295.06053268765135 440.7053374039373 295.06053268765135 445.5563743551953 Q 295.06053268765135 450.40741130645335 295.06053268765135 451.62017054426786 Q 295.06053268765135 452.8329297820824 295.06053268765135 456.4712074955259 Q 295.06053268765135 460.10948520896943 295.06053268765135 461.3222444467839 Q 295.06053268765135 462.5350036845984 295.06053268765135 463.7477629224129 Q 295.06053268765135 464.9605221602274 296.27329192546586 467.38604063585643 Q 297.48605116328037 469.81155911148545 297.48605116328037 471.02431834929996 Q 297.48605116328037 472.23707758711447 297.48605116328037 473.449836824929 Q 297.48605116328037 474.6625960627435 297.48605116328037 475.875355300558 Q 297.48605116328037 477.0881145383725 298.6988104010949 478.300873776187 Q 299.9115696389094 479.5136330140015 299.9115696389094 481.93915148963055 Q 299.9115696389094 484.36466996525957 301.1243288767239 486.7901884408885 Q 302.3370881145384 489.21570691651755 302.3370881145384 491.64122539214657 Q 302.3370881145384 494.0667438677756 302.3370881145384 495.2795031055901 Q 302.3370881145384 496.4922623434046 303.5498473523529 498.9177808190336 Q 304.7626065901674 501.34329929466264 305.97536582798193 502.55605853247715 Q 307.18812506579644 503.76881777029166 308.40088430361095 506.1943362459207 Q 309.61364354142546 508.6198547215497 310.82640277923997 513.4708916728077 Q 312.0391620170545 518.3219286240658 313.251921254869 523.1729655753238 Q 314.46468049268344 528.0240025265817 315.67743973049795 531.6622802400252 Q 316.89019896831246 535.3005579534688 318.10295820612697 537.7260764290978 Q 319.3157174439415 540.1515949047268 320.528476681756 545.0026318559849 Q 321.7412359195705 549.8536688072429 322.953995157385 551.0664280450574 Q 324.1667543951995 552.2791872828719 325.379513633014 555.9174649963154 Q 326.59227287082854 559.555742709759 329.01779134645756 563.1940204232026 Q 331.4433098220866 566.832298136646 332.6560690599011 569.2578166122751 Q 333.8688282977156 571.6833350879041 335.0815875355301 575.3216128013476 Q 336.2943467733446 578.959890514791 337.5071060111591 581.38540899042 Q 338.71986524897363 583.8109274660491 341.14538372460265 587.4492051794925 Q 343.5709022002316 591.0874828929361 345.99642067586063 592.3002421307506 Q 348.42193915148965 593.5130013685651 350.8474576271187 597.1512790820086 Q 353.2729761027477 600.7895567954522 356.9112538161912 602.0023160332667 Q 360.54953152963475 603.2150752710812 369.0388461943363 609.2788714601538 Q 377.5281608590378 615.3426676492263 383.5919570481104 617.7681861248553 Q 389.6557532371829 620.1937046004844 398.14506790188443 625.0447415517424 Q 406.634382566586 629.8957785030003 412.69817875565855 631.1085377408149 Q 418.76197494473104 632.3212969786293 427.2512896094326 635.9595746920729 Q 435.74060427413417 639.5978524055164 449.0809558900937 642.0233708811454 Q 462.4213075060533 644.4488893567744 469.6978629329403 645.661648594589 Q 476.9744183598274 646.8744078324034 484.25097378671444 646.8744078324034 Q 491.5275292136015 646.8744078324034 497.591325402674 646.8744078324034 Q 503.65512159174654 646.8744078324034 510.93167701863354 646.8744078324034 Q 518.2082324455206 646.8744078324034 526.6975471102221 646.8744078324034 Q 535.1868617749237 646.8744078324034 544.8889356774398 646.8744078324034 Q 554.5910095799559 646.8744078324034 563.0803242446574 646.8744078324034 Q 571.5696389093589 646.8744078324034 575.2079166228025 645.661648594589 Q 578.846194336246 644.4488893567744 586.122749763133 640.810611643331 Q 593.3993051900201 637.1723339298874 599.4631013790927 634.7468154542584 Q 605.5268975681652 632.3212969786293 610.3779345194232 631.1085377408149 Q 615.2289714706811 629.8957785030003 624.9310453731972 622.6192230761133 Q 634.6331192757133 615.3426676492263 643.1224339404148 609.2788714601538 Q 651.6117486051164 603.2150752710812 660.1010632698179 595.9385198441942 Q 668.5903779345194 588.6619644173071 674.6541741235919 582.5981682282346 Q 680.7179703126645 576.5343720391621 686.7817665017371 568.0450573744606 Q 692.8455626908096 559.555742709759 696.4838404042532 552.2791872828719 Q 700.1221181176967 545.0026318559849 703.7603958311402 536.5133171912832 Q 707.3986735445837 528.0240025265817 708.6114327823982 523.1729655753238 Q 709.8241920202128 518.3219286240658 709.8241920202128 512.2581324349933 Q 709.8241920202128 506.1943362459207 709.8241920202128 502.55605853247715 Q 709.8241920202128 498.9177808190336 708.6114327823982 491.64122539214657 Q 707.3986735445837 484.36466996525957 706.1859143067693 480.72639225181604 Q 704.9731550689547 477.0881145383725 701.3348773555113 472.23707758711447 Q 697.6965996420677 467.38604063585643 696.4838404042532 463.7477629224129 Q 695.2710811664386 460.10948520896943 692.8455626908096 458.8967259711549 Q 690.4200442151806 457.6839667333404 689.207284977366 455.2584482577114 Q 687.9945257395516 452.8329297820824 685.5690072639226 451.62017054426786 Q 683.1434887882936 450.40741130645335 678.2924518370355 447.98189283082434 Q 673.4414148857775 445.5563743551953 672.228655647963 445.5563743551953 Q 671.0158964101485 445.5563743551953 667.377618696705 445.5563743551953 Q 663.7393409832614 445.5563743551953 661.3138225076325 444.3436151173808 Q 658.8883040320035 443.1308558795663 656.4627855563745 443.1308558795663 Q 654.0372670807454 443.1308558795663 651.6117486051164 443.1308558795663 Q 649.1862301294874 443.1308558795663 644.3351931782294 443.1308558795663 Q 639.4841562269713 443.1308558795663 634.6331192757133 443.1308558795663 Q 629.7820823244552 443.1308558795663 621.2927676597537 443.1308558795663 Q 612.8034529950521 443.1308558795663 607.9524160437941 443.1308558795663 Q 603.1013790925361 443.1308558795663 595.8248236656491 443.1308558795663 Q 588.548268238762 443.1308558795663 582.4844720496894 443.1308558795663 Q 576.4206758606169 443.1308558795663 567.9313611959153 444.3436151173808 Q 559.4420465312138 445.5563743551953 553.3782503421413 449.19465206863885 Q 547.3144541530688 452.8329297820824 540.0378987261818 455.2584482577114 Q 532.7613432992947 457.6839667333404 527.9103063480367 458.8967259711549 Q 523.0592693967786 460.10948520896943 515.7827139698916 462.53500368459845 Q 508.5061585430046 464.9605221602274 504.86788082956105 467.38604063585643 Q 501.2296031161175 469.81155911148545 493.9530476892305 473.449836824929 Q 486.67649226234346 477.0881145383725 481.8254553110854 479.5136330140015 Q 476.9744183598274 481.93915148963055 469.6978629329403 485.5774292030741 Q 462.4213075060533 489.21570691651755 456.3575113169808 491.64122539214657 Q 450.29371512790823 494.0667438677756 444.2299189388357 500.13054005684813 Q 438.1661227497632 506.1943362459207 433.31508579850515 511.0453731971787 Q 428.4640488472471 515.8964101484368 421.18749342036006 520.7474470996948 Q 413.91093799347306 525.5984840509528 409.059901042215 530.4495210022108 Q 404.208864090957 535.3005579534688 398.14506790188443 541.3643541425413 Q 392.0812717128119 547.4281503316139 387.2302347615539 552.2791872828719 Q 382.37919781029586 557.13022423413 378.74092009685234 560.7685019475734 Q 375.1026423834088 564.406779661017 370.25160543215077 571.683335087904 Q 365.40056848089273 578.959890514791 359.33677229182024 586.2364459416781 Q 353.2729761027477 593.5130013685651 345.9964206758607 606.8533529845247 Q 338.71986524897363 620.1937046004844 332.6560690599011 632.3212969786293 Q 326.59227287082854 644.4488893567744 324.1667543951995 651.7254447836615 Q 321.7412359195705 659.0020002105485 320.528476681756 665.0657963996211 Q 319.3157174439415 671.1295925886936 316.89019896831246 679.6189072533952 Q 314.46468049268344 688.1082219180967 312.0391620170544 700.2358142962418 Q 309.61364354142546 712.3634066743869 309.61364354142546 720.8527213390885 Q 309.61364354142546 729.34203600379 309.61364354142546 736.618591430677 Q 309.61364354142546 743.895146857564 309.61364354142546 751.171702284451 Q 309.61364354142546 758.4482577113381 309.61364354142546 764.5120539004106 Q 309.61364354142546 770.5758500894832 309.61364354142546 776.6396462785558 Q 309.61364354142546 782.7034424676283 310.82640277923997 787.5544794188863 Q 312.0391620170545 792.4055163701443 314.46468049268344 798.4693125592169 Q 316.89019896831246 804.5331087482894 318.10295820612697 806.9586272239184 Q 319.3157174439415 809.3841456995474 320.528476681756 810.5969049373618 Q 321.7412359195705 811.8096641751764 324.1667543951995 813.022423412991 Q 326.59227287082854 814.2351826508054 329.01779134645756 816.6607011264344 Q 331.4433098220866 819.0862196020635 335.0815875355301 822.724497315507 Q 338.71986524897363 826.3627750289505 343.57090220023167 831.2138119802086 Q 348.42193915148965 836.0648489314666 356.9112538161912 839.7031266449101 Q 365.40056848089273 843.3414043583535 377.5281608590378 850.6179597852406 Q 389.6557532371829 857.8945152121277 395.7195494262554 861.5327929255711 Q 401.78334561532796 865.1710706390147 409.059901042215 867.5965891146437 Q 416.3364564691021 870.0221075902728 426.0385303716181 873.6603853037163 Q 435.74060427413417 877.2986630171598 444.2299189388357 879.7241814927888 Q 452.71923360353725 882.1496999684178 458.7830297926098 884.5752184440469 Q 464.84682598168234 887.0007369196759 472.12338140856934 889.4262553953049 Q 479.3999368354564 891.8517738709338 484.25097378671444 891.8517738709338 Q 489.1020107379725 891.8517738709338 492.74028845141595 891.8517738709338 Q 496.3785661648595 891.8517738709338 502.442362353932 891.8517738709338 Q 508.5061585430046 891.8517738709338 515.7827139698916 891.8517738709338 Q 523.0592693967786 891.8517738709338 532.7613432992947 891.8517738709338 Q 542.4634172018108 891.8517738709338 560.6548057690284 891.8517738709338 Q 578.846194336246 891.8517738709338 589.7610274765766 891.8517738709338 Q 600.6758606169071 891.8517738709338 612.8034529950521 891.8517738709338 Q 624.9310453731972 891.8517738709338 638.2713969891568 890.6390146331194 Q 651.6117486051164 889.4262553953048 663.7393409832614 884.5752184440469 Q 675.8669333614065 879.7241814927888 690.4200442151806 876.0859037793452 Q 704.9731550689547 872.4476260659018 717.1007474470998 866.3838298768292 Q 729.2283398252448 860.3200336877567 738.9304137277609 855.4689967364986 Q 748.632487630277 850.6179597852406 755.909043057164 845.7669228339826 Q 763.1855984840511 840.9158858827245 771.6749131487526 834.852089693652 Q 780.1642278134541 828.7882935045795 788.6535424781557 823.9372565533215 Q 797.1428571428572 819.0862196020635 803.2066533319298 815.4479418886199 Q 809.2704495210023 811.8096641751764 816.5470049478893 809.3841456995474 Q 823.8235603747763 806.9586272239184 828.6745973260344 802.1075902726603 Q 833.5256342772924 797.2565533214023 839.589430466365 793.6182756079588 Q 845.6532266554375 789.9799978945152 852.9297820823246 785.1289609432572 Q 860.2063375092116 780.2779239919993 863.8446152226552 775.4268870407412 Q 867.4828929360987 770.5758500894832 872.3339298873566 764.5120539004106 Q 877.1849668386146 758.4482577113381 879.6104853142436 751.171702284451 Q 882.0360037898727 743.895146857564 882.0360037898727 740.2568691441204 Q 882.0360037898727 736.6185914306769 882.0360037898727 730.5547952416044 Q 882.0360037898727 724.490999052532 882.0360037898727 719.6399621012739 Q 882.0360037898727 714.7889251500159 882.0360037898727 713.5761659122013 Q 882.0360037898727 712.3634066743869 878.3977260764291 708.7251289609433 Q 874.7594483629856 705.0868512474998 873.546689125171 703.8740920096852 Q 872.3339298873566 702.6613327718708 869.9084114117277 702.6613327718708 Q 867.4828929360987 702.6613327718708 866.2701336982841 701.4485735340563 Q 865.0573744604696 700.2358142962418 863.8446152226552 700.2358142962418 Q 862.6318559848406 700.2358142962418 857.7808190335826 699.0230550584272 Q 852.9297820823246 697.8102958206127 850.5042636066955 697.8102958206127 Q 848.0787451310665 697.8102958206127 845.6532266554375 696.5975365827983 Q 843.2277081798085 695.3847773449837 838.3766712285504 695.3847773449837 Q 833.5256342772924 695.3847773449837 829.8873565638489 695.3847773449837 Q 826.2490788504053 695.3847773449837 822.6108011369618 695.3847773449837 Q 818.9725234235183 695.3847773449837 814.1214864722604 695.3847773449837 Q 809.2704495210023 695.3847773449837 805.6321718075587 695.3847773449837 Q 801.9938940941153 695.3847773449837 798.3556163806718 695.3847773449837 Q 794.7173386672282 695.3847773449837 792.2918201915992 695.3847773449837 Q 789.8663017159702 695.3847773449837 787.4407832403411 696.5975365827983 Q 785.0152647647121 697.8102958206127 782.5897462890831 699.0230550584272 Q 780.1642278134541 700.2358142962418 777.7387093378251 701.4485735340563 Q 775.313190862196 702.6613327718708 771.6749131487525 705.0868512474998 Q 768.036635435309 707.5123697231288 764.3983577218655 711.1506474365724 Q 760.760080008422 714.7889251500159 755.909043057164 718.4272028634593 Q 751.058006105906 722.0654805769029 748.632487630277 724.490999052532 Q 746.2069691546479 726.916517528161 743.7814506790189 730.5547952416044 Q 741.3559322033899 734.1930729550479 737.7176544899464 737.8313506684915 Q 734.0793767765028 741.469628381935 732.8666175386884 743.895146857564 Q 731.6538583008738 746.320665333193 729.2283398252448 748.746183808822 Q 726.8028213496158 751.171702284451 725.5900621118012 754.8099799978945 Q 724.3773028739868 758.4482577113381 723.1645436361723 762.0865354247817 Q 721.9517843983577 765.7248131382252 721.9517843983577 769.3630908516686 Q 721.9517843983577 773.0013685651122 721.9517843983577 776.6396462785558 Q 721.9517843983577 780.2779239919993 720.7390251605432 783.9162017054427 Q 719.5262659227287 787.5544794188862 719.5262659227287 791.1927571323297 Q 719.5262659227287 794.8310348457733 718.3135066849143 798.4693125592169 Q 717.1007474470997 802.1075902726603 717.1007474470997 805.7458679861038 Q 717.1007474470997 809.3841456995474 717.1007474470997 811.8096641751764 Q 717.1007474470997 814.2351826508054 717.1007474470997 816.6607011264344 Q 717.1007474470997 819.0862196020635 718.3135066849143 820.2989788398779 Q 719.5262659227287 821.5117380776925 720.7390251605432 823.9372565533215 Q 721.9517843983577 826.3627750289505 724.3773028739868 830.001052742394 Q 726.8028213496158 833.6393304558376 729.2283398252448 836.0648489314665 Q 731.6538583008738 838.4903674070955 734.0793767765028 840.9158858827245 Q 736.5048952521319 843.3414043583535 740.1431729655753 846.979682071797 Q 743.7814506790189 850.6179597852406 748.632487630277 853.0434782608696 Q 753.483524581535 855.4689967364986 757.1218022949786 857.8945152121277 Q 760.760080008422 860.3200336877567 766.8238761974945 862.7455521633857 Q 772.887672386567 865.1710706390147 780.1642278134541 867.5965891146437 Q 787.4407832403411 870.0221075902728 793.5045794294138 873.6603853037163 Q 799.5683756184862 877.2986630171598 805.6321718075587 878.5114222549744 Q 811.6959679966313 879.7241814927888 817.7597641857038 882.1496999684178 Q 823.8235603747763 884.5752184440469 828.6745973260344 884.5752184440469 Q 833.5256342772924 884.5752184440469 838.3766712285504 885.7879776818613 Q 843.2277081798085 887.0007369196759 849.2915043688811 888.2134961574903 Q 855.3553005579536 889.4262553953048 860.2063375092116 890.6390146331194 Q 865.0573744604696 891.8517738709338 869.9084114117277 893.0645331087483 Q 874.7594483629856 894.2772923465628 878.3977260764291 894.2772923465628 Q 882.0360037898727 894.2772923465628 888.0997999789452 895.4900515843774 Q 894.1635961680178 896.7028108221919 897.8018738814612 897.9155700600063 Q 901.4401515949048 899.1283292978209 902.6529108327193 899.1283292978209 Q 903.8656700705338 899.1283292978209 906.2911885461629 899.1283292978209 Q 908.7167070217919 899.1283292978209 909.9294662596064 899.1283292978209 Q 911.1422254974209 899.1283292978209 912.3549847352353 900.3410885356354 Q 913.5677439730499 901.5538477734499 915.9932624486789 901.5538477734499 Q 918.418780924308 901.5538477734499 919.6315401621225 902.7666070112643 Q 920.844299399937 903.9793662490789 923.2698178755659 905.1921254868935 Q 925.6953363511949 906.4048847247079 929.3336140646384 907.6176439625224 Q 932.971891778082 908.830403200337 935.397410253711 910.0431624381515 Q 937.82292872934 911.255921675966 939.0356879671544 911.255921675966 L 940.278447204969 911.255921675966" stroke-linecap="round" />
</g>
</svg>